<?xml version="1.0" encoding="utf-8"?>
<!-- Generator: Adobe Illustrator 26.3.1, SVG Export Plug-In . SVG Version: 6.00 Build 0)  -->
<svg version="1.1" id="Ebene_1" xmlns="http://www.w3.org/2000/svg" xmlns:xlink="http://www.w3.org/1999/xlink" x="0px" y="0px"
	 viewBox="0 0 252.5 52.1" style="enable-background:new 0 0 252.5 52.1;" xml:space="preserve">
<style type="text/css">
	.st0{fill:#F43192;}
</style>
<path d="M217.5,16c-1.7-2.8-4-4.9-7.1-6.5s-6.5-2.3-10.4-2.3h-13.5V44H200c3.9,0,7.4-0.8,10.4-2.3s5.4-3.7,7.1-6.5s2.5-6,2.5-9.6
	C220,22,219.2,18.8,217.5,16z M211.3,32.1c-1.1,1.9-2.6,3.3-4.6,4.3s-4.3,1.5-7,1.5h-6.2V13.3h6.2c2.6,0,4.9,0.5,7,1.5
	s3.5,2.4,4.6,4.3c1.1,1.9,1.6,4,1.6,6.5C212.9,28.1,212.4,30.2,211.3,32.1z"/>
<g>
	<path class="st0" d="M142,1.3c1.6,8.1,2.4,16.5,2.4,24.8c0,8.4-0.8,16.7-2.4,24.8l5.8,1.1c1.7-8.5,2.5-17.2,2.5-26
		s-0.8-17.5-2.5-26L142,1.3z"/>
	<path class="st0" d="M133.3,6.8c1.5,6.3,2.2,12.8,2.2,19.3c0,6.6-0.8,13.1-2.2,19.3l5.8,1.4c1.6-6.7,2.4-13.7,2.4-20.7
		s-0.8-14-2.4-20.7L133.3,6.8z"/>
	<path class="st0" d="M125.2,15.9c0.8,3.3,1.2,6.7,1.2,10.2s-0.4,6.9-1.2,10.2l5.8,1.4c0.9-3.8,1.4-7.7,1.4-11.6s-0.5-7.8-1.4-11.6
		L125.2,15.9z"/>
	<path class="st0" d="M158,0.1c-1.7,8.5-2.5,17.2-2.5,26s0.8,17.5,2.5,26l5.8-1.1c-1.6-8.1-2.4-16.5-2.4-24.8
		c0-8.4,0.8-16.7,2.4-24.8L158,0.1z"/>
	<path class="st0" d="M166.9,5.4c-1.6,6.7-2.4,13.7-2.4,20.7s0.8,14,2.4,20.7l5.8-1.4c-1.5-6.3-2.2-12.8-2.2-19.3
		c0-6.6,0.8-13.1,2.2-19.3L166.9,5.4z"/>
	<path class="st0" d="M180.8,15.9l-5.8-1.4c-0.9,3.8-1.4,7.7-1.4,11.6s0.5,7.8,1.4,11.6l5.8-1.4c-0.8-3.3-1.2-6.7-1.2-10.2
		S179.9,19.2,180.8,15.9z"/>
</g>
<path d="M245.1,23.5c3.6-1.4,4.9-4.1,4.9-7c0-6.1-5-9.2-11.5-9.2h-9c-0.2,0-0.3,0-0.5,0h-3.4v3.8v28.8v3.9h3.9h3.2h6.3
	c8.9,0,13.5-4.3,13.5-10.6C252.5,29,250.7,25.6,245.1,23.5z M243.2,17.3c0,2.6-1.8,4.3-4.6,4.3h-5.8v-8.3h5.8
	C241.4,13.2,243.2,14.7,243.2,17.3z M239,37.9h-6.3V27h6.3c4.9,0,6.6,2.7,6.6,5.6C245.7,35.4,243.9,37.9,239,37.9z"/>
<path d="M72.4,13.4V7.3c-6.1,0-18.8,0-24.9,0c0,11.7,0,24.8,0,36.6c5.8,0,19,0,24.9,0v-6.2c-1.9,0-15.6,0-17.8,0v-9h17.8v-6.2H54.6
	v-9L72.4,13.4L72.4,13.4z"/>
<path d="M33.7,7.3L20.3,31.4L6.9,7.3H0v36.6h6.9c0-5.4,0-14.6,0-23.1l11.2,18.9h4.4l11.2-18.9v23.1h6.9c0-8.7,0-27.8,0-36.6
	C40.6,7.3,33.7,7.3,33.7,7.3z"/>
<path d="M112.3,7.3L98.9,31.4L85.5,7.3h-6.9v36.6h6.9c0-5.4,0-14.6,0-23.1l11.2,18.9h4.4l11.2-18.9v23.1h6.9c0-8.7,0-27.8,0-36.6
	C119.2,7.3,112.3,7.3,112.3,7.3z"/>
</svg>
